<svg id="svg" version="1.1" xmlns="http://www.w3.org/2000/svg" xmlns:xlink="http://www.w3.org/1999/xlink" width="400" height="425.2452025586354" viewBox="0, 0, 400,425.2452025586354"><g id="svgg"><path id="path0" d="M203.961 209.703 C 203.811 209.825,202.204 211.650,200.389 213.760 C 195.655 219.262,193.125 221.110,185.132 224.905 C 160.246 236.720,122.931 244.773,87.764 245.916 L 83.990 246.039 83.722 246.679 C 83.465 247.295,82.819 249.048,81.105 253.788 C 80.664 255.007,79.696 257.559,78.954 259.459 C 78.211 261.360,77.493 263.314,77.357 263.802 C 77.222 264.289,76.279 266.841,75.263 269.473 C 74.246 272.105,73.053 275.295,72.612 276.562 C 72.170 277.829,71.359 280.022,70.808 281.436 C 70.258 282.849,69.445 285.002,69.001 286.221 C 68.558 287.439,67.803 289.513,67.325 290.829 C 66.846 292.144,66.456 293.310,66.457 293.418 C 66.460 293.623,71.981 296.425,74.498 297.500 C 75.292 297.838,76.500 298.420,77.182 298.792 C 77.864 299.164,79.818 300.123,81.524 300.925 C 83.230 301.726,86.380 303.244,88.525 304.298 C 90.669 305.352,92.902 306.418,93.487 306.667 C 94.072 306.916,95.906 307.810,97.563 308.653 C 99.220 309.496,101.374 310.532,102.348 310.955 C 103.423 311.421,104.098 311.812,104.064 311.948 C 104.032 312.071,103.301 313.656,102.438 315.470 C 101.575 317.284,100.514 319.600,100.078 320.616 C 99.643 321.632,98.829 323.420,98.269 324.590 C 96.441 328.410,95.525 330.397,95.525 330.543 C 95.525 330.623,94.488 332.873,93.221 335.545 C 91.954 338.216,90.917 340.481,90.917 340.577 C 90.917 340.673,90.291 342.060,89.525 343.659 C 86.985 348.965,86.537 349.930,86.401 350.377 C 86.327 350.620,85.889 351.617,85.427 352.592 C 84.965 353.567,83.977 355.651,83.233 357.223 C 82.488 358.795,81.879 360.158,81.879 360.252 C 81.879 360.346,80.882 362.509,79.663 365.058 C 78.445 367.608,77.448 369.744,77.448 369.805 C 77.448 369.962,76.353 372.376,74.965 375.277 C 73.764 377.788,72.663 380.229,72.663 380.382 C 72.663 380.428,71.714 382.461,70.553 384.900 C 69.393 387.338,68.387 389.520,68.317 389.749 C 68.247 389.977,67.530 391.560,66.723 393.265 C 64.081 398.848,63.624 399.842,63.624 400.006 C 63.624 400.095,63.339 400.748,62.991 401.457 C 61.795 403.895,59.194 409.520,59.194 409.669 C 59.194 409.751,58.157 411.992,56.890 414.648 C 55.623 417.304,54.586 419.550,54.586 419.639 C 54.586 419.728,54.027 420.973,53.345 422.407 C 51.684 425.896,51.752 426.228,53.700 424.147 C 54.316 423.489,55.751 421.994,56.889 420.824 C 58.026 419.654,63.091 414.391,68.144 409.127 C 77.891 398.973,80.922 395.832,83.208 393.517 C 83.988 392.727,86.021 390.619,87.727 388.832 C 89.433 387.044,91.586 384.817,92.512 383.882 C 93.438 382.946,95.472 380.840,97.031 379.202 C 98.591 377.563,100.704 375.367,101.728 374.320 C 102.751 373.274,104.665 371.300,105.981 369.934 C 107.297 368.568,109.484 366.301,110.840 364.895 C 112.197 363.489,114.345 361.263,115.614 359.947 C 116.883 358.631,118.853 356.597,119.992 355.428 C 121.131 354.258,126.315 348.875,131.511 343.465 C 136.707 338.055,142.089 332.472,143.471 331.059 C 144.852 329.646,151.472 322.787,158.182 315.817 C 172.130 301.330,174.178 299.211,175.897 297.475 C 176.580 296.786,178.693 294.597,180.594 292.610 C 182.494 290.623,184.610 288.433,185.294 287.742 C 187.541 285.476,189.455 283.404,189.455 283.237 C 189.455 283.147,188.837 282.609,188.082 282.041 C 187.326 281.474,186.309 280.686,185.822 280.290 C 185.335 279.895,184.377 279.197,183.695 278.739 C 183.013 278.282,182.215 277.694,181.923 277.434 C 181.474 277.033,179.637 275.644,177.718 274.253 C 177.453 274.061,176.097 273.045,174.706 271.996 C 173.314 270.947,171.298 269.435,170.226 268.636 C 169.154 267.837,167.798 266.795,167.213 266.319 C 166.628 265.843,165.990 265.386,165.795 265.302 C 165.600 265.218,165.042 264.825,164.555 264.429 C 164.067 264.032,163.090 263.260,162.384 262.714 C 160.864 261.539,160.903 261.714,161.921 260.611 C 162.372 260.124,162.948 259.446,163.201 259.105 C 163.808 258.288,165.257 256.571,166.241 255.501 C 166.675 255.029,167.336 254.232,167.711 253.728 C 168.086 253.225,169.103 252.014,169.971 251.037 C 170.840 250.060,171.930 248.772,172.394 248.175 C 172.859 247.578,173.957 246.260,174.834 245.247 C 175.711 244.234,178.024 241.497,179.973 239.165 C 181.923 236.834,184.116 234.232,184.847 233.383 C 185.578 232.535,186.796 231.097,187.553 230.187 C 188.311 229.278,189.370 228.015,189.907 227.381 C 190.445 226.748,191.380 225.645,191.986 224.930 C 192.592 224.216,193.620 222.980,194.271 222.183 C 194.921 221.387,195.846 220.297,196.327 219.761 C 196.808 219.225,197.854 217.988,198.652 217.014 C 199.450 216.039,200.291 215.042,200.520 214.798 C 201.489 213.768,204.696 209.820,204.696 209.658 C 204.696 209.412,204.287 209.438,203.961 209.703 " stroke="none" fill="#fbb404" fill-rule="evenodd"></path><path id="path1" d="M182.277 0.194 C 162.093 1.566,141.031 5.957,126.008 11.924 C 124.302 12.602,122.189 13.417,121.311 13.736 C 120.434 14.055,119.078 14.611,118.299 14.971 C 112.007 17.877,106.128 20.778,104.302 21.877 C 103.770 22.198,103.087 22.563,102.784 22.688 C 102.481 22.814,102.016 23.123,101.751 23.377 C 101.487 23.630,101.034 23.968,100.746 24.127 C 100.457 24.287,99.225 25.008,98.006 25.731 C 96.788 26.453,95.631 27.134,95.436 27.244 C 94.155 27.969,91.941 29.347,90.098 30.567 C 88.916 31.349,87.600 32.204,87.174 32.467 C 86.747 32.729,85.441 33.628,84.271 34.463 C 83.101 35.298,81.706 36.273,81.170 36.630 C 79.955 37.437,77.859 38.989,77.271 39.517 C 77.027 39.736,76.070 40.457,75.144 41.119 C 74.218 41.780,73.301 42.473,73.106 42.657 C 72.911 42.842,71.874 43.700,70.802 44.565 C 58.183 54.740,45.201 68.081,36.154 80.171 C 35.326 81.278,34.112 82.893,33.457 83.759 C 32.802 84.626,32.139 85.597,31.983 85.918 C 31.827 86.238,31.479 86.757,31.209 87.070 C 30.676 87.686,28.006 91.674,26.354 94.322 C 25.788 95.227,24.944 96.566,24.478 97.297 C 24.011 98.028,23.305 99.225,22.910 99.956 C 22.514 100.687,21.624 102.282,20.932 103.500 C 19.478 106.058,14.611 115.839,14.008 117.412 C 13.784 117.997,13.420 118.875,13.200 119.362 C 10.226 125.932,5.376 140.275,4.626 144.714 C 4.528 145.294,4.123 147.155,3.725 148.849 C -0.457 166.651,-1.295 187.667,1.605 202.002 C 2.735 207.589,4.818 214.148,6.598 217.723 C 9.981 224.517,13.211 228.735,17.201 231.568 C 19.663 233.315,26.331 236.690,29.108 237.594 C 29.620 237.761,30.658 238.120,31.413 238.393 C 38.830 241.073,48.716 243.313,59.016 244.647 C 60.917 244.893,63.070 245.176,63.802 245.276 C 75.905 246.922,99.581 246.021,119.634 243.151 C 146.713 239.275,174.185 231.171,189.922 222.416 C 195.259 219.447,196.087 218.761,200.482 213.665 C 202.341 211.510,203.993 209.668,204.155 209.570 C 204.317 209.473,205.160 208.595,206.029 207.621 C 206.898 206.646,207.711 205.785,207.835 205.707 C 207.960 205.630,208.493 205.031,209.019 204.378 C 210.033 203.120,217.635 195.394,220.027 193.191 C 220.806 192.472,221.840 191.518,222.324 191.069 C 223.882 189.626,226.526 187.383,229.774 184.749 C 230.846 183.880,231.750 183.108,231.783 183.033 C 231.815 182.959,231.917 182.898,232.008 182.898 C 232.160 182.898,234.724 181.074,237.005 179.344 C 237.512 178.959,238.206 178.512,238.547 178.350 C 238.888 178.188,239.805 177.640,240.585 177.133 C 243.804 175.041,247.687 173.059,252.105 171.255 C 253.177 170.817,254.080 170.387,254.113 170.299 C 254.234 169.970,261.029 168.217,265.055 167.476 C 273.225 165.972,282.624 165.523,313.248 165.177 C 327.141 165.020,334.533 164.867,343.455 164.555 C 352.505 164.237,363.402 162.712,370.137 160.821 C 371.405 160.465,372.760 160.109,373.150 160.029 C 374.872 159.677,379.401 157.767,381.952 156.316 C 382.812 155.827,383.590 155.428,383.683 155.428 C 383.845 155.428,386.176 153.893,386.354 153.669 C 386.402 153.608,386.801 153.284,387.240 152.949 C 392.228 149.140,395.877 143.975,398.027 137.683 C 401.346 127.965,400.724 113.820,396.339 99.335 C 395.896 97.873,395.427 96.278,395.296 95.791 C 393.716 89.919,387.178 78.415,382.689 73.610 C 382.406 73.307,381.836 72.611,381.422 72.063 C 381.009 71.515,379.756 70.101,378.638 68.920 C 377.521 67.738,376.606 66.717,376.606 66.649 C 376.606 66.489,370.896 61.060,368.111 58.573 C 365.907 56.605,359.749 51.609,358.440 50.728 C 358.051 50.465,356.615 49.416,355.250 48.395 C 353.886 47.375,352.193 46.178,351.488 45.734 C 350.784 45.290,349.308 44.324,348.210 43.586 C 347.111 42.849,345.693 41.937,345.060 41.560 C 344.426 41.183,342.751 40.159,341.338 39.285 C 339.925 38.410,338.130 37.361,337.350 36.952 C 336.571 36.543,334.816 35.584,333.451 34.819 C 332.087 34.055,330.372 33.131,329.641 32.766 C 323.330 29.616,319.707 27.845,319.185 27.655 C 318.844 27.531,318.126 27.230,317.590 26.986 C 314.433 25.552,310.253 23.721,309.260 23.337 C 308.626 23.092,305.995 22.057,303.412 21.037 C 300.829 20.017,298.037 18.962,297.209 18.692 C 296.380 18.421,293.948 17.584,291.803 16.830 C 289.659 16.076,287.116 15.207,286.152 14.900 C 285.188 14.592,284.233 14.225,284.030 14.082 C 283.827 13.940,283.529 13.824,283.368 13.824 C 283.207 13.824,281.530 13.350,279.641 12.772 C 275.504 11.505,269.135 9.696,267.789 9.406 C 265.339 8.878,259.185 7.345,259.105 7.243 C 258.920 7.006,248.954 4.869,246.840 4.613 C 246.129 4.527,244.431 4.251,243.066 4.000 C 234.912 2.497,225.810 1.318,215.419 0.418 C 211.547 0.083,186.411 -0.088,182.277 0.194 " stroke="none" fill="#1ca4ab" fill-rule="evenodd"></path></g></svg>